<svg width="18" height="22" viewBox="0 0 18 22" fill="none" xmlns="http://www.w3.org/2000/svg">
<path d="M4.2001 9.79995H13.8001V7.39995H4.2001V9.79995ZM15.0001 11V18.1999H17.4001V11H15.0001ZM13.8001 19.4H4.2001V21.7999H13.8001V19.4ZM3.0001 18.1999V11H0.600098V18.1999H3.0001ZM4.2001 19.4C3.88184 19.4 3.57661 19.2735 3.35157 19.0485C3.12653 18.8234 3.0001 18.5182 3.0001 18.1999H0.600098C0.600098 19.1547 0.979382 20.0704 1.65451 20.7455C2.32964 21.4207 3.24532 21.7999 4.2001 21.7999V19.4ZM15.0001 18.1999C15.0001 18.5182 14.8737 18.8234 14.6486 19.0485C14.4236 19.2735 14.1184 19.4 13.8001 19.4V21.7999C14.7549 21.7999 15.6706 21.4207 16.3457 20.7455C17.0208 20.0704 17.4001 19.1547 17.4001 18.1999H15.0001ZM13.8001 9.79995C14.1184 9.79995 14.4236 9.92638 14.6486 10.1514C14.8737 10.3765 15.0001 10.6817 15.0001 11H17.4001C17.4001 10.0452 17.0208 9.1295 16.3457 8.45437C15.6706 7.77923 14.7549 7.39995 13.8001 7.39995V9.79995ZM4.2001 7.39995C3.24532 7.39995 2.32964 7.77923 1.65451 8.45437C0.979382 9.1295 0.600098 10.0452 0.600098 11H3.0001C3.0001 10.6817 3.12653 10.3765 3.35157 10.1514C3.57661 9.92638 3.88184 9.79995 4.2001 9.79995V7.39995ZM5.4001 8.59995V6.19995H3.0001V8.59995H5.4001ZM12.6001 6.19995V8.59995H15.0001V6.19995H12.6001ZM9.0001 2.59995C9.95488 2.59995 10.8706 2.97924 11.5457 3.65437C12.2208 4.3295 12.6001 5.24517 12.6001 6.19995H15.0001C15.0001 4.60865 14.368 3.08253 13.2427 1.95731C12.1175 0.832092 10.5914 0.199951 9.0001 0.199951V2.59995ZM5.4001 6.19995C5.4001 5.24517 5.77938 4.3295 6.45451 3.65437C7.12964 2.97924 8.04532 2.59995 9.0001 2.59995V0.199951C7.4088 0.199951 5.88268 0.832092 4.75746 1.95731C3.63224 3.08253 3.0001 4.60865 3.0001 6.19995H5.4001Z" fill="#1F1F1F"/>
</svg>
