<svg width="19" height="32" viewBox="0 0 19 32" fill="none" xmlns="http://www.w3.org/2000/svg">
<path d="M17.9998 19.15C17.5357 18.3264 16.9075 17.6069 16.1541 17.0358C15.4007 16.4647 14.5382 16.0543 13.6198 15.83C12.7582 15.5715 11.8837 15.3579 10.9998 15.19V6.12C12.7569 6.30848 14.4333 6.95694 15.8598 8C15.9583 8.08733 16.0731 8.1544 16.1975 8.19739C16.3219 8.24039 16.4535 8.25845 16.5849 8.25056C16.7163 8.24266 16.8449 8.20897 16.9633 8.15139C17.0816 8.09382 17.1875 8.01349 17.2748 7.915C17.3622 7.81651 17.4292 7.70178 17.4722 7.57737C17.5152 7.45295 17.5333 7.32129 17.5254 7.1899C17.5175 7.0585 17.4838 6.92995 17.4262 6.81157C17.3687 6.6932 17.2883 6.58733 17.1898 6.5C15.4001 5.1216 13.251 4.28834 10.9998 4.1V1C10.9998 0.734784 10.8945 0.48043 10.7069 0.292893C10.5194 0.105357 10.2651 0 9.99983 0C9.73462 0 9.48026 0.105357 9.29273 0.292893C9.10519 0.48043 8.99983 0.734784 8.99983 1V4C4.59983 4.1 2.16983 6.29 1.42983 8.18C0.93617 9.39705 0.889269 10.7496 1.29744 11.9979C1.70562 13.2462 2.54251 14.3097 3.65983 15C5.28623 15.9914 7.10793 16.6191 8.99983 16.84V26C6.38915 25.8686 3.88822 24.9088 1.85983 23.26C1.76931 23.1523 1.65708 23.0649 1.53046 23.0035C1.40385 22.9421 1.26571 22.9081 1.12506 22.9038C0.984424 22.8995 0.84445 22.9249 0.714294 22.9783C0.584138 23.0318 0.466729 23.1121 0.369742 23.214C0.272755 23.316 0.198373 23.4373 0.151459 23.5699C0.104544 23.7026 0.0861535 23.8436 0.0974882 23.9839C0.108823 24.1241 0.149629 24.2604 0.217237 24.3838C0.284846 24.5072 0.377735 24.615 0.489834 24.7C2.88177 26.7138 5.87559 27.8747 8.99983 28V31C8.99983 31.2652 9.10519 31.5196 9.29273 31.7071C9.48026 31.8946 9.73462 32 9.99983 32C10.2651 32 10.5194 31.8946 10.7069 31.7071C10.8945 31.5196 10.9998 31.2652 10.9998 31V28C13.8198 27.81 17.0698 26.91 18.2998 23.24C18.5224 22.5722 18.6104 21.867 18.5589 21.165C18.5075 20.463 18.3174 19.7782 17.9998 19.15ZM4.78983 13.32C4.05963 12.8853 3.50843 12.2045 3.23531 11.3998C2.96219 10.5951 2.98507 9.71934 3.29983 8.93C3.40983 8.63 4.52983 6.12 8.99983 6V14.8C7.50808 14.608 6.07355 14.1037 4.78983 13.32ZM16.3998 22.56C15.6798 24.7 14.0798 25.73 10.9998 25.96V17.23C11.6398 17.37 12.2998 17.53 12.9998 17.74C13.6611 17.8902 14.2849 18.1733 14.8333 18.5721C15.3817 18.971 15.8432 19.4772 16.1898 20.06C16.582 20.8344 16.6574 21.731 16.3998 22.56Z" fill="#1F1F1F"/>
</svg>
