<svg width="20" height="20" viewBox="0 0 20 20" fill="none" xmlns="http://www.w3.org/2000/svg">
<path d="M4.34992 18.25L5.55992 16.66C6.41992 17.23 7.38992 17.64 8.42992 17.85L8.15992 19.83C6.76992 19.57 5.49992 19 4.34992 18.25ZM14.4299 16.66L15.6399 18.26C14.4999 19.03 13.2299 19.57 11.8399 19.83L11.5699 17.85C12.6099 17.64 13.5699 17.23 14.4299 16.66ZM17.8399 11.59L19.8299 11.86C19.5699 13.25 18.9999 14.54 18.2399 15.66L16.6499 14.45C17.2199 13.6 17.6299 12.63 17.8399 11.59ZM0.169922 11.84L2.14992 11.57C2.35744 12.5945 2.76155 13.5692 3.33992 14.44L1.74992 15.65C0.999922 14.5 0.429922 13.23 0.169922 11.84ZM16.6599 5.55998L18.2499 4.34998C19.0412 5.50071 19.5797 6.80604 19.8299 8.17998L17.8499 8.44998C17.6444 7.4186 17.2402 6.43705 16.6599 5.55998ZM11.5699 2.14998L11.8399 0.169983C13.2299 0.429983 14.4999 0.999983 15.6499 1.74998L14.4399 3.33998C13.5691 2.76161 12.5945 2.3575 11.5699 2.14998ZM5.55992 3.33998L4.34992 1.74998C5.49992 0.999983 6.76992 0.429983 8.15992 0.169983L8.42992 2.14998C7.40536 2.3575 6.43072 2.76161 5.55992 3.33998ZM2.14992 8.42998L0.169922 8.15998C0.429922 6.76998 0.999922 5.49998 1.74992 4.34998L3.33992 5.55998C2.76155 6.43078 2.35744 7.40542 2.14992 8.42998Z" fill="#131313"/>
</svg>
