<svg width="228" height="200" viewBox="0 0 228 200" fill="none" xmlns="http://www.w3.org/2000/svg">
<path d="M163.248 39.52H64.7522C56.7038 39.52 50.1602 45.7192 50.1602 53.344V146.656C50.1602 154.281 56.7038 160.48 64.7522 160.48H163.248C171.297 160.48 177.84 154.281 177.84 146.656V53.344C177.84 45.7192 171.297 39.52 163.248 39.52ZM173.28 146.656C173.28 151.905 168.789 156.16 163.248 156.16H64.7522C59.2118 156.16 54.7202 151.905 54.7202 146.656V53.344C54.7202 48.0952 59.2118 43.84 64.7522 43.84H163.248C168.789 43.84 173.28 48.0952 173.28 53.344V146.656Z" fill="black"/>
<path d="M104.72 102.311H68.8786C66.097 102.311 63.8398 104.45 63.8398 107.085V142.746C63.8398 145.382 66.097 147.52 68.8786 147.52H104.72C107.502 147.52 109.759 145.382 109.759 142.746V107.085C109.759 104.45 107.502 102.311 104.72 102.311ZM105.199 142.746C105.199 142.984 104.994 143.2 104.72 143.2H68.8786C68.605 143.2 68.3998 143.006 68.3998 142.746V107.085C68.3998 106.847 68.605 106.631 68.8786 106.631H104.72C104.971 106.631 105.199 106.826 105.199 107.085V142.746Z" fill="black"/>
<path d="M104.72 52.48H68.8786C66.097 52.48 63.8398 54.6184 63.8398 57.2536V88.5952C63.8398 91.2304 66.097 93.3688 68.8786 93.3688H104.72C107.502 93.3688 109.759 91.2304 109.759 88.5952V57.2536C109.759 54.6184 107.502 52.48 104.72 52.48ZM105.199 88.5952C105.199 88.8328 104.994 89.0488 104.72 89.0488H68.8786C68.6278 89.0488 68.3998 88.8544 68.3998 88.5952V57.2536C68.3998 57.016 68.605 56.8 68.8786 56.8H104.72C104.971 56.8 105.199 56.9944 105.199 57.2536V88.5952Z" fill="black"/>
<path d="M159.122 52.48H123.28C120.498 52.48 118.241 54.6184 118.241 57.2536V65.1376C118.241 67.7728 120.498 69.9112 123.28 69.9112H159.122C161.903 69.9112 164.16 67.7728 164.16 65.1376V57.2536C164.16 54.6184 161.903 52.48 159.122 52.48ZM159.6 65.1376C159.6 65.3752 159.395 65.5912 159.122 65.5912H123.28C123.029 65.5912 122.801 65.3968 122.801 65.1376V57.2536C122.801 57.016 123.006 56.8 123.28 56.8H159.122C159.372 56.8 159.6 56.9944 159.6 57.2536V65.1376Z" fill="black"/>
<path d="M159.122 78.5512H123.28C120.498 78.5512 118.241 80.6896 118.241 83.3248V142.746C118.241 145.382 120.498 147.52 123.28 147.52H159.122C161.903 147.52 164.16 145.382 164.16 142.746V83.3248C164.16 80.6896 161.903 78.5512 159.122 78.5512ZM159.6 142.746C159.6 142.984 159.395 143.2 159.122 143.2H123.28C123.029 143.2 122.801 143.006 122.801 142.746V83.3248C122.801 83.0872 123.006 82.8712 123.28 82.8712H159.122C159.372 82.8712 159.6 83.0656 159.6 83.3248V142.746Z" fill="black"/>
</svg>
