<svg width="100" height="100" viewBox="0 0 100 100" fill="none" xmlns="http://www.w3.org/2000/svg">
<path fill-rule="evenodd" clip-rule="evenodd" d="M50 35.9365C43.4076 35.9365 38.0635 41.1137 38.0635 47.5C38.0635 53.8863 43.4076 59.0635 50 59.0635C56.5924 59.0635 61.9365 53.8863 61.9365 47.5C61.9365 41.1137 56.5924 35.9365 50 35.9365ZM34 47.5C34 38.9396 41.1634 32 50 32C58.8366 32 66 38.9396 66 47.5C66 56.0604 58.8366 63 50 63C41.1634 63 34 56.0604 34 47.5Z" fill="black" stroke="black" stroke-linecap="round" stroke-linejoin="round"/>
<path fill-rule="evenodd" clip-rule="evenodd" d="M50 62.8779C45.8119 62.8779 41.7056 64.0047 38.1355 66.1335C34.5654 68.2624 31.6708 71.3102 29.7722 74.9397C29.2729 75.8941 28.0723 76.2744 27.0906 75.7889C26.1089 75.3034 25.7178 74.1361 26.2171 73.1816C28.4495 68.9143 31.8528 65.3308 36.0503 62.8278C40.2479 60.3248 45.0759 59 50 59C54.924 59 59.7521 60.3248 63.9496 62.8277C68.1472 65.3307 71.5505 68.9142 73.7829 73.1815C74.2822 74.136 73.8911 75.3033 72.9094 75.7888C71.9277 76.2743 70.7271 75.8941 70.2278 74.9396C68.3292 71.3101 65.4346 68.2623 61.8645 66.1335C58.2944 64.0047 54.188 62.8779 50 62.8779Z" fill="black" stroke="black" stroke-linecap="round" stroke-linejoin="round"/>
<path fill-rule="evenodd" clip-rule="evenodd" d="M65 25C65 23.8954 65.8736 23 66.9512 23H83.0488C84.1264 23 85 23.8954 85 25C85 26.1046 84.1264 27 83.0488 27H66.9512C65.8736 27 65 26.1046 65 25Z" fill="black" stroke="black" stroke-linecap="round" stroke-linejoin="round"/>
<path fill-rule="evenodd" clip-rule="evenodd" d="M75 15C76.1046 15 77 15.8736 77 16.9512V33.0488C77 34.1264 76.1046 35 75 35C73.8954 35 73 34.1264 73 33.0488V16.9512C73 15.8736 73.8954 15 75 15Z" fill="black" stroke="black" stroke-linecap="round" stroke-linejoin="round"/>
<path fill-rule="evenodd" clip-rule="evenodd" d="M54.8627 19.3877C48.3968 18.3606 41.7718 19.4072 35.9374 22.3775C30.103 25.3477 25.359 30.0891 22.3854 35.9218C19.4118 41.7545 18.3615 48.3789 19.3849 54.8454C20.4083 61.3118 23.453 67.2882 28.0824 71.9176C32.7118 76.547 38.6881 79.5916 45.1546 80.6151C51.621 81.6385 58.2455 80.5882 64.0781 77.6146C69.9108 74.6411 74.6522 69.897 77.6225 64.0627C80.5928 58.2283 81.6394 51.6033 80.6124 45.1374C80.4389 44.0455 81.1835 43.0197 82.2754 42.8462C83.3673 42.6728 84.3931 43.4173 84.5666 44.5093C85.7263 51.8103 84.5445 59.2912 81.1905 65.8792C77.8366 72.4671 72.4827 77.824 65.8966 81.1816C59.3105 84.5393 51.8304 85.7253 44.5287 84.5697C37.2269 83.414 30.4786 79.9761 25.2513 74.7487C20.0239 69.5213 16.586 62.773 15.4303 55.4713C14.2747 48.1696 15.4607 40.6894 18.8184 34.1033C22.1761 27.5172 27.5329 22.1634 34.1209 18.8094C40.7089 15.4555 48.1897 14.2737 55.4908 15.4334C56.5827 15.6069 57.3273 16.6327 57.1539 17.7246C56.9804 18.8165 55.9546 19.5611 54.8627 19.3877Z" fill="black" stroke="black" stroke-linecap="round" stroke-linejoin="round"/>
</svg>
