<svg width="128" height="122" viewBox="0 0 128 122" fill="none" xmlns="http://www.w3.org/2000/svg">
<path d="M14.7522 121.48H113.248C121.297 121.48 127.84 115.281 127.84 107.656V14.344C127.84 6.71922 121.297 0.52002 113.248 0.52002H14.7522C6.70376 0.52002 0.160156 6.71922 0.160156 14.344V107.656C0.160156 115.281 6.70376 121.48 14.7522 121.48ZM4.72016 14.344C4.72016 9.09522 9.21176 4.84002 14.7522 4.84002H113.248C118.789 4.84002 123.28 9.09522 123.28 14.344V107.656C123.28 112.905 118.789 117.16 113.248 117.16H14.7522C9.21176 117.16 4.72016 112.905 4.72016 107.656V14.344ZM32.1714 82.8376L59.9646 98.044C61.1958 98.7136 62.5866 99.0592 63.9774 99.0592H64.0002H64.023C65.4138 99.0592 66.8046 98.7136 68.0358 98.044L95.829 82.8376C98.3142 81.4768 99.8646 78.928 99.8646 76.2064V45.7936C99.8646 44.7136 99.6138 43.6552 99.1578 42.7048C99.1122 42.532 99.0666 42.3592 98.9754 42.1864C98.9298 42.1 98.8386 42.0568 98.7702 41.9704C98.0634 40.8256 97.0602 39.8536 95.8062 39.1624L68.013 23.956C65.5278 22.5952 62.427 22.5952 59.9418 23.956L32.1486 39.1624C29.6634 40.5232 28.113 43.072 28.113 45.7936V76.2064C28.113 78.928 29.6634 81.4768 32.1714 82.8376ZM32.673 45.7936C32.673 44.6056 33.357 43.504 34.4286 42.8992L62.2218 27.6928C62.769 27.3904 63.3618 27.2392 63.9774 27.2392C64.593 27.2392 65.1858 27.3904 65.733 27.6928L93.2982 42.7696L72.3678 54.2176C71.2734 54.8224 70.9086 56.14 71.5242 57.1768C71.9574 57.868 72.7098 58.2568 73.5078 58.2568C73.8954 58.2568 74.283 58.1704 74.6478 57.976L95.2818 46.7008V76.228C95.2818 77.416 94.5978 78.5176 93.5262 79.1224L66.2802 94.0048V61C66.2802 60.2224 65.847 59.5096 65.1402 59.1424L41.4282 46.096C40.3338 45.4912 38.943 45.8368 38.3046 46.8736C37.6662 47.9104 38.031 49.228 39.1254 49.8328L61.6974 62.2528V94.0264L34.4286 79.1008C33.3342 78.5176 32.673 77.3944 32.673 76.2064V45.7936Z" fill="black"/>
</svg>
