<svg width="128" height="122" viewBox="0 0 128 122" fill="none" xmlns="http://www.w3.org/2000/svg">
<path d="M113.248 0.52002H14.7522C6.70376 0.52002 0.160156 6.71922 0.160156 14.344V107.656C0.160156 115.281 6.70376 121.48 14.7522 121.48H113.248C121.297 121.48 127.84 115.281 127.84 107.656V14.344C127.84 6.71922 121.297 0.52002 113.248 0.52002ZM123.28 107.656C123.28 112.905 118.789 117.16 113.248 117.16H14.7522C9.21175 117.16 4.72016 112.905 4.72016 107.656V14.344C4.72016 9.09522 9.21175 4.84002 14.7522 4.84002H113.248C118.789 4.84002 123.28 9.09522 123.28 14.344V107.656ZM104.333 52.576C105.587 52.576 106.613 51.604 106.613 50.416C106.613 49.228 105.587 48.256 104.333 48.256H91.0638V43.5688C91.0638 39.0328 87.165 35.3392 82.377 35.3392H77.4522V22.768C77.4522 21.58 76.4262 20.608 75.1722 20.608C73.9182 20.608 72.8922 21.58 72.8922 22.768V35.3392H66.2802V22.768C66.2802 21.58 65.2542 20.608 64.0002 20.608C62.7462 20.608 61.7202 21.58 61.7202 22.768V35.3392H55.1082V22.768C55.1082 21.58 54.0822 20.608 52.8282 20.608C51.5742 20.608 50.5482 21.58 50.5482 22.768V35.3392H45.6006C40.8126 35.3392 36.9138 39.0328 36.9138 43.5688V48.256H23.6442C22.3902 48.256 21.3642 49.228 21.3642 50.416C21.3642 51.604 22.3902 52.576 23.6442 52.576H36.9138V58.84H23.6442C22.3902 58.84 21.3642 59.812 21.3642 61C21.3642 62.188 22.3902 63.16 23.6442 63.16H36.9138V69.424H23.6442C22.3902 69.424 21.3642 70.396 21.3642 71.584C21.3642 72.772 22.3902 73.744 23.6442 73.744H36.9138V78.4312C36.9138 82.9672 40.8126 86.6608 45.6006 86.6608H50.5482V99.232C50.5482 100.42 51.5742 101.392 52.8282 101.392C54.0822 101.392 55.1082 100.42 55.1082 99.232V86.6608H61.7202V99.232C61.7202 100.42 62.7462 101.392 64.0002 101.392C65.2542 101.392 66.2802 100.42 66.2802 99.232V86.6608H72.8922V99.232C72.8922 100.42 73.9182 101.392 75.1722 101.392C76.4262 101.392 77.4522 100.42 77.4522 99.232V86.6608H82.3998C87.1878 86.6608 91.0866 82.9672 91.0866 78.4312V73.744H104.356C105.61 73.744 106.636 72.772 106.636 71.584C106.636 70.396 105.61 69.424 104.356 69.424H91.0866V63.16H104.356C105.61 63.16 106.636 62.188 106.636 61C106.636 59.812 105.61 58.84 104.356 58.84H91.0866V52.576H104.333ZM86.5038 78.4312C86.5038 80.5912 84.657 82.3408 82.377 82.3408H45.6006C43.3206 82.3408 41.4738 80.5912 41.4738 78.4312V43.5688C41.4738 41.4088 43.3206 39.6592 45.6006 39.6592H82.377C84.657 39.6592 86.5038 41.4088 86.5038 43.5688V78.4312Z" fill="black"/>
</svg>
