<svg width="16" height="16" viewBox="0 0 16 16" fill="none" xmlns="http://www.w3.org/2000/svg">
<path fill-rule="evenodd" clip-rule="evenodd" d="M2.89361 0.500066L13.1862 0.5C13.5503 0.5 13.9142 0.55348 14.2945 0.730764C14.7503 0.943243 14.992 1.27815 15.1614 1.52582C15.1745 1.54509 15.1869 1.56495 15.1983 1.58527C15.3974 1.9397 15.5 2.32239 15.5 2.73404C15.5 3.12518 15.4069 3.55132 15.1983 3.92273C15.1963 3.92633 15.1943 3.92981 15.1922 3.93335L8.68953 15.1035C8.54613 15.3499 8.2822 15.501 7.99717 15.5C7.71214 15.499 7.44926 15.346 7.30763 15.0986L0.92435 3.95229C0.922515 3.94927 0.92068 3.94626 0.918845 3.94318C0.772757 3.70245 0.546843 3.33019 0.507323 2.84978C0.471014 2.40798 0.570306 1.96533 0.792288 1.58153C1.01427 1.19767 1.34846 0.890811 1.75041 0.702975C2.1814 0.501573 2.61815 0.500066 2.89361 0.500066ZM7.20211 2.09575H2.89361C2.61055 2.09575 2.50188 2.11319 2.42592 2.14871C2.32086 2.19773 2.23265 2.27841 2.17366 2.38039C2.11468 2.48243 2.088 2.60067 2.0977 2.71903C2.10327 2.78687 2.13093 2.86446 2.29406 3.1335C2.29747 3.13914 2.30081 3.14484 2.30409 3.15054L7.20211 11.7034V2.09575ZM8.79787 2.09575V11.7456L13.8093 3.13698C13.8659 3.03421 13.9042 2.8857 13.9042 2.73404C13.9042 2.61102 13.8787 2.50419 13.8217 2.39409C13.7619 2.30804 13.7255 2.26249 13.695 2.23129C13.6688 2.20461 13.6487 2.19033 13.6203 2.17709C13.5018 2.12184 13.3805 2.09575 13.1862 2.09575H8.79787Z" fill="#131313"/>
</svg>
