<svg width="100" height="100" viewBox="0 0 100 100" fill="none" xmlns="http://www.w3.org/2000/svg">
<path d="M74.7 43.5964V43.6001C74.7 56.924 63.8239 67.8001 50.5 67.8001C37.1761 67.8001 26.3 56.924 26.3 43.6001C26.3 30.2762 37.1761 19.4001 50.5 19.4001C63.9272 19.4001 74.7979 30.1788 74.7 43.5964ZM21.5 43.6001C21.5 59.5762 34.5239 72.6001 50.5 72.6001C66.5773 72.6001 79.5 59.5751 79.5 43.6001C79.5 27.624 66.4761 14.6001 50.5 14.6001C34.5239 14.6001 21.5 27.624 21.5 43.6001Z" fill="black" stroke="black"/>
<path d="M72.5532 61.2465C71.3579 60.0513 69.4413 60.0513 68.2461 61.2465C67.0508 62.4418 67.0508 64.3584 68.2461 65.5537L84.3461 81.6537C85.5413 82.8489 87.4579 82.8489 88.6532 81.6537C89.8484 80.4584 89.8484 78.5418 88.6532 77.3465L72.5532 61.2465Z" fill="black" stroke="black"/>
<path d="M22 63.4001H11.9C10.5239 63.4001 9.5 64.424 9.5 65.8001C9.5 67.059 10.5069 68.2001 11.9 68.2001H22C23.2588 68.2001 24.4 67.1933 24.4 65.8001C24.4 64.5413 23.3931 63.4001 22 63.4001Z" fill="black" stroke="black"/>
<path d="M30.9 71H11.9C10.5239 71 9.5 72.0239 9.5 73.4C9.5 74.6588 10.5069 75.8 11.9 75.8H30.9C32.1588 75.8 33.3 74.7931 33.3 73.4C33.3 72.1412 32.2931 71 30.9 71Z" fill="black" stroke="black"/>
<path d="M38.5 79.6001H11.9C10.5239 79.6001 9.5 80.624 9.5 82.0001C9.5 83.2589 10.5069 84.4001 11.9 84.4001H38.5C39.7588 84.4001 40.9 83.3932 40.9 82.0001C40.9 80.7413 39.8931 79.6001 38.5 79.6001Z" fill="black" stroke="black"/>
</svg>
