<svg width="24" height="24" viewBox="0 0 24 24" fill="none" xmlns="http://www.w3.org/2000/svg">
<path fill-rule="evenodd" clip-rule="evenodd" d="M12.0002 8.62494C10.418 8.62494 9.13539 9.86745 9.13539 11.4002C9.13539 12.9329 10.418 14.1754 12.0002 14.1754C13.5823 14.1754 14.8649 12.9329 14.8649 11.4002C14.8649 9.86745 13.5823 8.62494 12.0002 8.62494ZM8.16016 11.4002C8.16016 9.34568 9.87938 7.68018 12.0002 7.68018C14.1209 7.68018 15.8402 9.34568 15.8402 11.4002C15.8402 13.4547 14.1209 15.1202 12.0002 15.1202C9.87938 15.1202 8.16016 13.4547 8.16016 11.4002Z" fill="black" stroke="black" stroke-width="0.24" stroke-linecap="round" stroke-linejoin="round"/>
<path fill-rule="evenodd" clip-rule="evenodd" d="M12.0002 15.0909C10.9951 15.0909 10.0096 15.3613 9.15276 15.8722C8.29593 16.3831 7.60123 17.1146 7.14556 17.9857C7.02572 18.2148 6.73758 18.306 6.50197 18.1895C6.26636 18.073 6.17251 17.7928 6.29235 17.5637C6.82811 16.5396 7.6449 15.6795 8.65231 15.0788C9.65972 14.4781 10.8184 14.1602 12.0002 14.1602C13.182 14.1602 14.3407 14.4781 15.3481 15.0788C16.3556 15.6795 17.1724 16.5396 17.7081 17.5637C17.828 17.7928 17.7341 18.073 17.4985 18.1895C17.2629 18.306 16.9747 18.2147 16.8549 17.9857C16.3992 17.1146 15.7045 16.3831 14.8477 15.8722C13.9909 15.3613 13.0054 15.0909 12.0002 15.0909Z" fill="black" stroke="black" stroke-width="0.24" stroke-linecap="round" stroke-linejoin="round"/>
<path fill-rule="evenodd" clip-rule="evenodd" d="M15.6001 6.00002C15.6001 5.73492 15.8098 5.52002 16.0684 5.52002H19.9318C20.1904 5.52002 20.4001 5.73492 20.4001 6.00002C20.4001 6.26512 20.1904 6.48002 19.9318 6.48002H16.0684C15.8098 6.48002 15.6001 6.26512 15.6001 6.00002Z" fill="black" stroke="black" stroke-width="0.24" stroke-linecap="round" stroke-linejoin="round"/>
<path fill-rule="evenodd" clip-rule="evenodd" d="M18 3.6001C18.2651 3.6001 18.48 3.80976 18.48 4.06839V7.9318C18.48 8.19044 18.2651 8.4001 18 8.4001C17.7349 8.4001 17.52 8.19044 17.52 7.9318V4.06839C17.52 3.80976 17.7349 3.6001 18 3.6001Z" fill="black" stroke="black" stroke-width="0.24" stroke-linecap="round" stroke-linejoin="round"/>
<path fill-rule="evenodd" clip-rule="evenodd" d="M13.1671 4.65313C11.6153 4.40664 10.0253 4.65782 8.62507 5.37069C7.22482 6.08356 6.08625 7.22148 5.3726 8.62133C4.65894 10.0212 4.40685 11.611 4.65248 13.163C4.8981 14.7149 5.62882 16.1493 6.73987 17.2603C7.85092 18.3714 9.28524 19.1021 10.8372 19.3477C12.3891 19.5933 13.979 19.3413 15.3789 18.6276C16.7787 17.914 17.9166 16.7754 18.6295 15.3751C19.3424 13.9749 19.5936 12.3849 19.3471 10.8331C19.3054 10.571 19.4841 10.3248 19.7462 10.2832C20.0083 10.2416 20.2545 10.4203 20.2961 10.6823C20.5744 12.4346 20.2908 14.23 19.4858 15.8111C18.6809 17.3922 17.396 18.6779 15.8153 19.4837C14.2346 20.2895 12.4394 20.5742 10.687 20.2968C8.93456 20.0195 7.31497 19.1944 6.0604 17.9398C4.80584 16.6852 3.98073 15.0656 3.70338 13.3132C3.42602 11.5608 3.71067 9.76556 4.51651 8.18489C5.32235 6.60422 6.60799 5.31931 8.18911 4.51436C9.77023 3.70941 11.5656 3.42578 13.3179 3.70412C13.58 3.74575 13.7587 3.99194 13.717 4.254C13.6754 4.51606 13.4292 4.69476 13.1671 4.65313Z" fill="black" stroke="black" stroke-width="0.24" stroke-linecap="round" stroke-linejoin="round"/>
</svg>
