<svg width="173" height="177" viewBox="0 0 173 177" fill="none" xmlns="http://www.w3.org/2000/svg">
<path d="M64.183 73.5947H69.221V63.762C69.221 59.0499 71.1451 54.7672 74.2486 51.6637C77.3675 48.5603 81.6451 46.6361 86.3468 46.6361C91.0589 46.6361 95.3417 48.5603 98.4451 51.6637C101.543 54.762 103.473 59.0499 103.473 63.762V73.5947H108.511C110.936 73.5947 113.14 74.593 114.738 76.1861C116.347 77.7999 117.345 80.0085 117.345 82.4292V118.109C117.345 120.54 116.347 122.753 114.754 124.352C113.155 125.95 110.942 126.943 108.511 126.943H64.1882C61.7727 126.943 59.5641 125.95 57.9606 124.352L57.9399 124.331C56.3468 122.728 55.3537 120.524 55.3537 118.109V82.4292C55.3537 79.9982 56.3468 77.7844 57.9451 76.1861C59.5434 74.5878 61.7572 73.5947 64.1882 73.5947H64.183ZM85.2917 167.96C85.0589 167.883 3.69684 142.388 14.5072 36.4568C14.6365 35.143 15.4951 34.0723 16.6382 33.6068L85.0537 5.7068C85.9175 5.36025 86.8382 5.38094 87.6399 5.7068L156.055 33.6016C157.359 34.1292 158.161 35.3603 158.202 36.6792C168.873 142.424 87.6296 167.883 87.3968 167.96C86.6882 168.188 85.9537 168.172 85.2968 167.96H85.2917ZM21.1641 39.193C12.7848 131.096 77.3158 157.781 86.3468 161.05C95.3779 157.781 159.904 131.096 151.53 39.193L86.3468 12.6172L21.1641 39.193ZM76.1158 73.5947H96.5727V63.762C96.5727 60.9534 95.4193 58.393 93.5675 56.5413C91.7158 54.6896 89.1555 53.5361 86.3468 53.5361C83.533 53.5361 80.9727 54.6844 79.1158 56.5361C77.2692 58.393 76.1158 60.9534 76.1158 63.762V73.5947ZM108.505 80.4896H100.018H72.6658H64.1779C63.6503 80.4896 63.1589 80.712 62.8072 81.0637C62.4555 81.4154 62.233 81.9016 62.233 82.4344V118.114C62.233 118.652 62.4451 119.138 62.7917 119.484C63.1486 119.841 63.6348 120.059 64.1727 120.059H108.495C109.023 120.059 109.509 119.836 109.866 119.484C110.218 119.133 110.44 118.646 110.44 118.114V82.4344C110.44 81.8965 110.223 81.4103 109.876 81.0585C109.524 80.712 109.038 80.4947 108.5 80.4947L108.505 80.4896Z" fill="black"/>
</svg>
