<svg width="580" height="567" viewBox="0 0 580 567" fill="none" xmlns="http://www.w3.org/2000/svg">
<g filter="url(#filter0_i_391_1402)">
<rect x="90" width="400" height="100" rx="20" fill="white"/>
</g>
<path d="M206.933 214.848C193.372 214.848 182.055 205.028 179.747 192.117H141.211V62.0392H271.257V109.875H266.379C256.525 109.875 248.525 117.908 248.525 127.761C248.525 137.615 256.525 145.614 266.379 145.614H271.257V192.117H234.119C231.81 205.028 220.494 214.848 206.933 214.848ZM150.967 182.361H189.08V187.239C189.08 197.093 197.079 205.093 206.933 205.093C216.786 205.093 224.786 197.093 224.786 187.239V182.361H261.501V154.947C248.59 152.639 238.77 141.322 238.77 127.761C238.77 114.201 248.59 102.851 261.501 100.542V71.795H150.967V182.361Z" fill="black"/>
<path d="M271.289 312.407H141.211V182.361H189.047V187.239C189.047 197.093 197.047 205.093 206.9 205.093C216.754 205.093 224.754 197.093 224.754 187.239V182.361H271.257V219.531C276.785 220.507 281.858 223.108 285.923 227.173C291.158 232.376 294.02 239.336 294.02 246.75C294.02 260.311 284.199 271.628 271.289 273.936V312.407ZM150.967 302.651H261.533V264.571H266.411C276.265 264.571 284.264 256.571 284.264 246.718C284.264 241.937 282.411 237.417 279.029 234.068C275.679 230.718 271.192 228.864 266.444 228.864H266.411H261.533V192.117H234.119C231.81 205.028 220.494 214.848 206.933 214.848C193.372 214.848 182.055 205.028 179.747 192.117H150.967V302.651Z" fill="black"/>
<path d="M391.579 312.407H261.501V264.571H266.379C276.232 264.571 284.232 256.571 284.232 246.718C284.232 236.864 276.232 228.864 266.379 228.864H261.501V182.361H298.671C300.98 169.451 312.296 159.63 325.857 159.63C339.418 159.63 350.735 169.451 353.043 182.361H391.579V312.407ZM271.257 302.651H381.823V192.117H343.71V187.239C343.71 177.386 335.711 169.386 325.857 169.386C316.004 169.386 308.004 177.386 308.004 187.239V192.117H271.257V219.531C284.167 221.84 293.988 233.157 293.988 246.718C293.988 260.278 284.167 271.595 271.257 273.904V302.651Z" fill="black"/>
<path d="M407.448 162.785L366.214 151.273L367.515 146.59C369.726 138.688 365.076 130.46 357.173 128.281C353.336 127.208 349.336 127.696 345.889 129.647C342.442 131.598 339.938 134.785 338.865 138.59L337.564 143.306L297.467 132.086L306.15 100.9C295.907 95.6969 290.411 83.8273 293.598 72.3479C296.785 60.8685 307.646 53.5516 319.093 54.3971L328.101 22.1052L438.114 52.8037L407.448 162.785ZM377.758 144.379L400.652 150.752L426.115 59.5352L334.897 34.1049L326.02 65.9415L321.337 64.6408C313.435 62.4294 305.207 67.0797 303.028 74.982C300.817 82.8842 305.467 91.1117 313.369 93.2905L318.052 94.5913L309.5 125.322L331.255 131.403C333.434 127.111 336.816 123.566 341.109 121.127C346.832 117.908 353.499 117.095 359.807 118.851C371.287 122.07 378.604 132.932 377.758 144.379Z" fill="black"/>
<g filter="url(#filter1_i_391_1402)">
<rect x="40" y="50" width="500" height="100" rx="20" fill="white"/>
</g>
<path d="M289.159 71C288.557 70.9977 287.96 71.1145 287.403 71.3439C286.847 71.5732 286.341 71.9105 285.915 72.3363C285.489 72.7621 285.152 73.268 284.923 73.8248C284.693 74.3815 284.576 74.9782 284.579 75.5804V110.877C284.581 111.477 284.701 112.069 284.933 112.622C285.164 113.175 285.502 113.676 285.928 114.098C286.353 114.52 286.857 114.854 287.412 115.082C287.966 115.309 288.56 115.424 289.159 115.422C290.365 115.42 291.52 114.94 292.373 114.089C293.226 113.237 293.708 112.083 293.713 110.877V75.5804C293.715 74.9805 293.599 74.386 293.371 73.831C293.144 73.2759 292.809 72.7713 292.386 72.3458C291.963 71.9204 291.46 71.5825 290.906 71.3516C290.353 71.1207 289.759 71.0012 289.159 71ZM213.308 90.961C212.436 90.927 211.573 91.1435 210.821 91.5847C209.784 92.1992 209.032 93.1993 208.73 94.3664C208.428 95.5335 208.6 96.7729 209.208 97.8136L227.227 128.397C227.531 128.915 227.935 129.368 228.415 129.73C228.895 130.092 229.442 130.355 230.024 130.505C230.606 130.655 231.212 130.688 231.807 130.603C232.402 130.518 232.974 130.316 233.491 130.009C234.01 129.705 234.463 129.301 234.825 128.821C235.186 128.341 235.45 127.795 235.6 127.212C235.75 126.63 235.783 126.024 235.698 125.429C235.613 124.834 235.411 124.262 235.104 123.745L217.05 93.1977C216.663 92.5421 216.117 91.994 215.463 91.6033C214.81 91.2126 214.068 90.9918 213.308 90.961ZM365.011 90.961C364.25 90.9918 363.509 91.2126 362.855 91.6033C362.201 91.994 361.656 92.5421 361.268 93.1977L343.223 123.745C342.916 124.262 342.714 124.834 342.629 125.429C342.544 126.024 342.577 126.63 342.727 127.213C342.877 127.795 343.14 128.341 343.502 128.821C343.864 129.301 344.317 129.705 344.836 130.01C345.353 130.317 345.925 130.518 346.52 130.603C347.115 130.688 347.721 130.655 348.303 130.505C348.885 130.355 349.432 130.092 349.912 129.73C350.392 129.368 350.796 128.915 351.1 128.397L369.119 97.8137C369.727 96.773 369.899 95.5337 369.597 94.3666C369.295 93.1994 368.543 92.1993 367.506 91.5848C366.751 91.142 365.885 90.9253 365.011 90.961ZM220.419 151.664C219.622 151.663 218.84 151.871 218.149 152.266C217.458 152.662 216.883 153.231 216.48 153.918L181.762 213.551C181.731 213.601 181.702 213.652 181.673 213.703L181.593 213.838C181.415 214.147 181.275 214.476 181.174 214.818C181.137 214.962 181.107 215.108 181.085 215.254C181.027 215.557 181 215.864 181.005 216.172C180.998 216.309 180.998 216.446 181.005 216.582C181.049 216.967 181.142 217.344 181.281 217.705C181.343 217.863 181.415 218.018 181.495 218.168C181.649 218.477 181.837 218.767 182.056 219.033C182.091 219.087 182.126 219.14 182.163 219.193L286.842 334.182C287.27 334.65 287.79 335.024 288.37 335.28C288.95 335.535 289.577 335.667 290.211 335.667C290.844 335.667 291.471 335.535 292.051 335.28C292.631 335.024 293.151 334.65 293.579 334.182L398.222 219.193C398.331 219.065 398.432 218.931 398.525 218.792C398.531 218.78 398.537 218.768 398.543 218.756C398.723 218.511 398.878 218.248 399.006 217.972C399.012 217.954 399.018 217.936 399.023 217.918C399.08 217.79 399.13 217.659 399.175 217.526C399.216 217.4 399.252 217.272 399.282 217.143C399.395 216.65 399.425 216.141 399.372 215.637C399.31 215.048 399.135 214.476 398.855 213.953C398.835 213.914 398.814 213.876 398.793 213.837L363.932 153.919C363.526 153.227 362.945 152.654 362.248 152.258C361.55 151.863 360.76 151.658 359.958 151.665L220.419 151.664ZM228.367 160.798H282.262L255.315 207.073L228.367 160.798ZM298.15 160.798H352.018L325.098 207.073L298.15 160.798ZM220.419 165.307L247.366 211.546H193.516L220.419 165.307ZM290.211 165.307L317.149 211.546H263.263L290.211 165.307ZM359.958 165.343L386.905 211.547H333.046L359.958 165.343ZM195.868 220.68H251.919L279.936 313.026L195.868 220.68ZM261.472 220.68H318.94L290.211 315.334L261.472 220.68ZM328.466 220.68H384.544L300.458 313.053L328.466 220.68Z" fill="black"/>
<g filter="url(#filter2_i_391_1402)">
<rect y="100" width="580" height="467" rx="40" fill="white"/>
</g>
<path d="M247.82 304.15H257.56V285.14C257.56 276.03 261.28 267.75 267.28 261.75C273.31 255.75 281.58 252.03 290.67 252.03C299.78 252.03 308.06 255.75 314.06 261.75C320.05 267.74 323.78 276.03 323.78 285.14V304.15H333.52C338.21 304.15 342.47 306.08 345.56 309.16C348.67 312.28 350.6 316.55 350.6 321.23V390.21C350.6 394.91 348.67 399.19 345.59 402.28C342.5 405.37 338.22 407.29 333.52 407.29H247.83C243.16 407.29 238.89 405.37 235.79 402.28L235.75 402.24C232.67 399.14 230.75 394.88 230.75 390.21V321.23C230.75 316.53 232.67 312.25 235.76 309.16C238.85 306.07 243.13 304.15 247.83 304.15H247.82ZM288.63 486.59C288.18 486.44 130.88 437.15 151.78 232.35C152.03 229.81 153.69 227.74 155.9 226.84L288.17 172.9C289.84 172.23 291.62 172.27 293.17 172.9L425.44 226.83C427.96 227.85 429.51 230.23 429.59 232.78C450.22 437.22 293.15 486.44 292.7 486.59C291.33 487.03 289.91 487 288.64 486.59H288.63ZM164.65 237.64C148.45 415.32 273.21 466.91 290.67 473.23C308.13 466.91 432.88 415.32 416.69 237.64L290.67 186.26L164.65 237.64ZM270.89 304.15H310.44V285.14C310.44 279.71 308.21 274.76 304.63 271.18C301.05 267.6 296.1 265.37 290.67 265.37C285.23 265.37 280.28 267.59 276.69 271.17C273.12 274.76 270.89 279.71 270.89 285.14V304.15ZM333.51 317.48H317.1H264.22H247.81C246.79 317.48 245.84 317.91 245.16 318.59C244.48 319.27 244.05 320.21 244.05 321.24V390.22C244.05 391.26 244.46 392.2 245.13 392.87C245.82 393.56 246.76 393.98 247.8 393.98H333.49C334.51 393.98 335.45 393.55 336.14 392.87C336.82 392.19 337.25 391.25 337.25 390.22V321.24C337.25 320.2 336.83 319.26 336.16 318.58C335.48 317.91 334.54 317.49 333.5 317.49L333.51 317.48Z" fill="black"/>
<defs>
<filter id="filter0_i_391_1402" x="86" y="0" width="404" height="103" filterUnits="userSpaceOnUse" color-interpolation-filters="sRGB">
<feFlood flood-opacity="0" result="BackgroundImageFix"/>
<feBlend mode="normal" in="SourceGraphic" in2="BackgroundImageFix" result="shape"/>
<feColorMatrix in="SourceAlpha" type="matrix" values="0 0 0 0 0 0 0 0 0 0 0 0 0 0 0 0 0 0 127 0" result="hardAlpha"/>
<feOffset dx="-4" dy="3"/>
<feGaussianBlur stdDeviation="3.5"/>
<feComposite in2="hardAlpha" operator="arithmetic" k2="-1" k3="1"/>
<feColorMatrix type="matrix" values="0 0 0 0 0 0 0 0 0 0 0 0 0 0 0 0 0 0 0.1 0"/>
<feBlend mode="normal" in2="shape" result="effect1_innerShadow_391_1402"/>
</filter>
<filter id="filter1_i_391_1402" x="36" y="50" width="504" height="103" filterUnits="userSpaceOnUse" color-interpolation-filters="sRGB">
<feFlood flood-opacity="0" result="BackgroundImageFix"/>
<feBlend mode="normal" in="SourceGraphic" in2="BackgroundImageFix" result="shape"/>
<feColorMatrix in="SourceAlpha" type="matrix" values="0 0 0 0 0 0 0 0 0 0 0 0 0 0 0 0 0 0 127 0" result="hardAlpha"/>
<feOffset dx="-4" dy="3"/>
<feGaussianBlur stdDeviation="3.5"/>
<feComposite in2="hardAlpha" operator="arithmetic" k2="-1" k3="1"/>
<feColorMatrix type="matrix" values="0 0 0 0 0 0 0 0 0 0 0 0 0 0 0 0 0 0 0.1 0"/>
<feBlend mode="normal" in2="shape" result="effect1_innerShadow_391_1402"/>
</filter>
<filter id="filter2_i_391_1402" x="-4" y="100" width="584" height="470" filterUnits="userSpaceOnUse" color-interpolation-filters="sRGB">
<feFlood flood-opacity="0" result="BackgroundImageFix"/>
<feBlend mode="normal" in="SourceGraphic" in2="BackgroundImageFix" result="shape"/>
<feColorMatrix in="SourceAlpha" type="matrix" values="0 0 0 0 0 0 0 0 0 0 0 0 0 0 0 0 0 0 127 0" result="hardAlpha"/>
<feOffset dx="-4" dy="3"/>
<feGaussianBlur stdDeviation="3.5"/>
<feComposite in2="hardAlpha" operator="arithmetic" k2="-1" k3="1"/>
<feColorMatrix type="matrix" values="0 0 0 0 0 0 0 0 0 0 0 0 0 0 0 0 0 0 0.1 0"/>
<feBlend mode="normal" in2="shape" result="effect1_innerShadow_391_1402"/>
</filter>
</defs>
</svg>
