<svg width="24" height="24" viewBox="0 0 24 24" fill="none" xmlns="http://www.w3.org/2000/svg">
<path d="M17.9328 10.4632V10.464C17.9328 13.6645 15.3203 16.277 12.1198 16.277C8.9193 16.277 6.30678 13.6645 6.30678 10.464C6.30678 7.26354 8.9193 4.65102 12.1198 4.65102C15.345 4.65102 17.9563 7.24012 17.9328 10.4632ZM5.16479 10.464C5.16479 14.2955 8.28827 17.419 12.1198 17.419C15.9756 17.419 19.0748 14.2953 19.0748 10.464C19.0748 6.63251 15.9513 3.50902 12.1198 3.50902C8.28827 3.50902 5.16479 6.63251 5.16479 10.464Z" fill="black" stroke="black" stroke-width="0.23"/>
<path d="M17.4095 14.7027C17.1246 14.4178 16.6678 14.4178 16.3829 14.7027C16.098 14.9876 16.098 15.4444 16.3829 15.7293L20.2469 19.5933C20.5318 19.8782 20.9886 19.8782 21.2735 19.5933C21.5584 19.3084 21.5584 18.8516 21.2735 18.5667L17.4095 14.7027Z" fill="black" stroke="black" stroke-width="0.23"/>
<path d="M5.2799 15.2209H2.8559C2.52839 15.2209 2.2849 15.4644 2.2849 15.7919C2.2849 16.0915 2.52448 16.3629 2.8559 16.3629H5.2799C5.57944 16.3629 5.8509 16.1234 5.8509 15.7919C5.8509 15.4924 5.61132 15.2209 5.2799 15.2209Z" fill="black" stroke="black" stroke-width="0.23"/>
<path d="M7.4159 17.0452H2.8559C2.52839 17.0452 2.2849 17.2886 2.2849 17.6162C2.2849 17.9157 2.52448 18.1872 2.8559 18.1872H7.4159C7.71544 18.1872 7.9869 17.9476 7.9869 17.6162C7.9869 17.3166 7.74732 17.0452 7.4159 17.0452Z" fill="black" stroke="black" stroke-width="0.23"/>
<path d="M9.2399 19.1091H2.8559C2.52839 19.1091 2.2849 19.3526 2.2849 19.6801C2.2849 19.9797 2.52448 20.2511 2.8559 20.2511H9.2399C9.53944 20.2511 9.8109 20.0115 9.8109 19.6801C9.8109 19.3806 9.57132 19.1091 9.2399 19.1091Z" fill="black" stroke="black" stroke-width="0.23"/>
</svg>
