<svg width="100" height="100" viewBox="0 0 100 100" fill="none" xmlns="http://www.w3.org/2000/svg">
<path fill-rule="evenodd" clip-rule="evenodd" d="M32.9787 25.0002L67.2873 25C68.5011 25 69.714 25.1783 70.9816 25.7692C72.501 26.4775 73.3067 27.5938 73.8712 28.4194C73.9151 28.4836 73.9562 28.5498 73.9942 28.6176C74.6579 29.799 75 31.0746 75 32.4468C75 33.7506 74.6898 35.1711 73.9942 36.4091C73.9876 36.4211 73.9809 36.4327 73.9741 36.4445L52.2984 73.6785C51.8204 74.4997 50.9407 75.0033 49.9906 75C49.0405 74.9967 48.1642 74.4866 47.6921 73.6621L26.4145 36.5076C26.4084 36.4976 26.4023 36.4875 26.3961 36.4773C25.9092 35.6748 25.1561 34.434 25.0244 32.8326C24.9034 31.3599 25.2344 29.8844 25.9743 28.6051C26.7142 27.3256 27.8282 26.3027 29.168 25.6766C30.6047 25.0052 32.0605 25.0002 32.9787 25.0002ZM47.3404 30.3192H32.9787C32.0352 30.3192 31.6729 30.3773 31.4197 30.4957C31.0695 30.6591 30.7755 30.928 30.5789 31.268C30.3823 31.6081 30.2933 32.0022 30.3257 32.3968C30.3442 32.6229 30.4364 32.8815 30.9802 33.7783C30.9916 33.7971 31.0027 33.8161 31.0136 33.8351L47.3404 62.3446V30.3192ZM52.6596 30.3192V62.4855L69.3645 33.7899C69.553 33.4474 69.6808 32.9523 69.6808 32.4468C69.6808 32.0367 69.5958 31.6806 69.4058 31.3136C69.2063 31.0268 69.0848 30.875 68.9833 30.771C68.8961 30.682 68.829 30.6344 68.7342 30.5903C68.3392 30.4061 67.9351 30.3192 67.2873 30.3192H52.6596Z" fill="#131313"/>
</svg>
