<svg width="18" height="18" viewBox="0 0 18 18" fill="none" xmlns="http://www.w3.org/2000/svg">
<path fill-rule="evenodd" clip-rule="evenodd" d="M10.1671 1.65313C8.61533 1.40664 7.02532 1.65782 5.62507 2.37069C4.22482 3.08355 3.08625 4.22148 2.3726 5.62133C1.65894 7.02118 1.40685 8.61104 1.65248 10.163C1.8981 11.7149 2.62882 13.1493 3.73987 14.2603C4.85092 15.3714 6.28524 16.1021 7.83719 16.3477C9.38914 16.5933 10.979 16.3413 12.3789 15.6276C13.7787 14.914 14.9166 13.7754 15.6295 12.3751C16.3424 10.9749 16.5936 9.38488 16.3471 7.83307C16.3054 7.57101 16.4841 7.32482 16.7462 7.28319C17.0083 7.24156 17.2545 7.42026 17.2961 7.68232C17.5744 9.43458 17.2908 11.23 16.4858 12.8111C15.6809 14.3922 14.396 15.6779 12.8153 16.4837C11.2346 17.2895 9.43939 17.5742 7.68698 17.2968C5.93456 17.0195 4.31497 16.1944 3.0604 14.9398C1.80584 13.6852 0.980727 12.0656 0.703375 10.3132C0.426024 8.56079 0.710673 6.76556 1.51651 5.18489C2.32235 3.60422 3.60799 2.31931 5.18911 1.51436C6.77024 0.709413 8.56563 0.425777 10.3179 0.704118C10.58 0.745746 10.7586 0.991937 10.717 1.254C10.6754 1.51606 10.4292 1.69476 10.1671 1.65313Z" fill="black" stroke="black" stroke-width="0.24" stroke-linecap="round" stroke-linejoin="round"/>
</svg>
